<svg width="9" height="13" viewBox="0 0 9 13" fill="none" xmlns="http://www.w3.org/2000/svg">
<path d="M4.06206 8.464C4.06206 8.048 4.1314 7.68533 4.27006 7.376C4.40873 7.06667 4.5794 6.78933 4.78206 6.544C4.9954 6.29867 5.22473 6.07467 5.47006 5.872C5.7154 5.65867 5.94473 5.45067 6.15806 5.248C6.3714 5.03467 6.54206 4.81067 6.67006 4.576C6.80873 4.34133 6.87806 4.06933 6.87806 3.76C6.87806 3.248 6.6754 2.832 6.27006 2.512C5.86473 2.192 5.30473 2.032 4.59006 2.032C3.95006 2.032 3.3954 2.13867 2.92606 2.352C2.45673 2.56533 2.05673 2.88 1.72606 3.296L0.558063 2.464C1.00606 1.89867 1.57673 1.46133 2.27006 1.152C2.9634 0.832 3.77406 0.672 4.70206 0.672C5.47006 0.672 6.13673 0.789333 6.70206 1.024C7.2674 1.248 7.70473 1.57333 8.01406 2C8.33406 2.416 8.49406 2.92267 8.49406 3.52C8.49406 3.968 8.42473 4.352 8.28606 4.672C8.1474 4.992 7.9714 5.27467 7.75806 5.52C7.54473 5.76533 7.3154 5.99467 7.07006 6.208C6.8354 6.42133 6.6114 6.63467 6.39806 6.848C6.18473 7.06133 6.00873 7.296 5.87006 7.552C5.7314 7.808 5.66206 8.112 5.66206 8.464H4.06206ZM4.87806 12.096C4.5794 12.096 4.32873 11.9947 4.12606 11.792C3.93406 11.5893 3.83806 11.3493 3.83806 11.072C3.83806 10.7733 3.93406 10.528 4.12606 10.336C4.32873 10.144 4.5794 10.048 4.87806 10.048C5.17673 10.048 5.42206 10.144 5.61406 10.336C5.80606 10.528 5.90206 10.7733 5.90206 11.072C5.90206 11.3493 5.80606 11.5893 5.61406 11.792C5.42206 11.9947 5.17673 12.096 4.87806 12.096Z" fill="white"/>
</svg>
