<svg width="106" height="51" viewBox="0 0 106 51" fill="none" xmlns="http://www.w3.org/2000/svg">
<path d="M8.136 15.732V32.94H10.728V17.892H26.424V32.94H29.124V15.732H8.136ZM0.9 10.98V13.212H32.688V10.98H0.9ZM3.528 6.156V8.316H30.6V6.156H3.528ZM9.9 20.34V22.248H27.576V20.34H9.9ZM9.9 24.804V26.676H27.576V24.804H9.9ZM9.648 29.34V31.5H27.576V29.34H9.648ZM28.512 0C22.788 1.188 11.808 1.692 3.024 1.764C3.276 2.34 3.528 3.276 3.6 3.888C12.492 3.852 23.544 3.312 30.24 1.98L28.512 0ZM13.752 2.484C11.844 10.44 7.632 18.324 0 22.716C0.54 23.22 1.332 24.228 1.692 24.804C9.756 20.016 14.148 11.772 16.56 3.06L13.752 2.484Z" fill="white"/>
<path d="M41.976 21.492V23.328H63.54V21.492H41.976ZM42.048 17.064V19.008H62.424V25.812H42.048V27.792H65.088V17.064H42.048ZM51.264 18.036V28.872C51.264 31.824 52.416 32.544 56.448 32.544C57.348 32.544 63.864 32.544 64.8 32.544C68.22 32.544 69.048 31.428 69.444 27.036C68.688 26.892 67.68 26.532 67.068 26.1C66.888 29.736 66.564 30.384 64.62 30.384C63.216 30.384 57.672 30.384 56.592 30.384C54.288 30.384 53.856 30.132 53.856 28.908V18.036H51.264ZM40.644 17.064V29.664H43.236V17.064H40.644ZM39.636 1.26V3.384H65.952V1.26H39.636ZM41.868 9.504V11.232H49.5V9.504H41.868ZM41.148 13.212V14.904H49.536V13.212H41.148ZM55.908 13.212V14.904H64.548V13.212H55.908ZM55.908 9.504V11.232H63.684V9.504H55.908ZM51.372 2.088V15.84H54V2.088H51.372ZM37.548 5.58V12.6H39.996V7.56H65.556V12.6H68.112V5.58H37.548Z" fill="white"/>
<path d="M72.432 12.888V15.048H92.952V12.888H72.432ZM81.504 10.332V14.076H83.988V10.332H81.504ZM77.58 19.08H88.128V22.428H77.58V19.08ZM75.204 17.172V24.336H90.612V17.172H75.204ZM77.328 6.696H88.344V8.928H77.328V6.696ZM77.328 2.808H88.344V5.04H77.328V2.808ZM74.88 1.08V10.656H90.864V1.08H74.88ZM81.504 23.004V30.24C81.504 30.6 81.396 30.708 80.964 30.708C80.496 30.744 79.164 30.744 77.508 30.672C77.904 31.32 78.372 32.184 78.516 32.832C80.532 32.832 81.864 32.832 82.8 32.472C83.736 32.112 83.988 31.5 83.988 30.276V23.004H81.504ZM76.284 25.236C75.42 27.18 73.908 29.088 72.288 30.42C72.864 30.78 73.836 31.428 74.268 31.824C75.888 30.348 77.58 28.08 78.624 25.848L76.284 25.236ZM86.256 26.316C87.66 27.864 89.28 29.988 90.036 31.32L92.16 30.168C91.368 28.836 89.712 26.784 88.308 25.272L86.256 26.316ZM101.268 0.36C99.252 3.132 95.544 6.084 92.412 7.74C93.06 8.244 93.888 9.072 94.356 9.648C97.668 7.704 101.412 4.572 103.824 1.404L101.268 0.36ZM102.24 10.332C100.008 13.248 95.976 16.344 92.556 18.108C93.24 18.612 94.068 19.44 94.536 20.016C98.1 17.964 102.168 14.724 104.76 11.376L102.24 10.332ZM103.176 20.52C100.728 24.768 96.012 28.512 91.116 30.636C91.8 31.212 92.592 32.148 93.024 32.796C98.244 30.348 102.996 26.28 105.804 21.456L103.176 20.52Z" fill="white"/>
<path d="M9.266 47.904L9.298 45.936L14.178 41.472H16.034L12.29 45.152L11.458 45.856L9.266 47.904ZM8.018 49.952V38.08H9.554V49.952H8.018ZM14.498 49.952L11.17 45.824L12.162 44.592L16.386 49.952H14.498Z" fill="white"/>
<path d="M22.9851 49.952V48.16L22.9051 47.824V44.768C22.9051 44.1173 22.7131 43.616 22.3291 43.264C21.9558 42.9013 21.3905 42.72 20.6331 42.72C20.1318 42.72 19.6411 42.8053 19.1611 42.976C18.6811 43.136 18.2758 43.3547 17.9451 43.632L17.3051 42.48C17.7425 42.128 18.2651 41.8613 18.8731 41.68C19.4918 41.488 20.1371 41.392 20.8091 41.392C21.9718 41.392 22.8678 41.6747 23.4971 42.24C24.1265 42.8053 24.4411 43.6693 24.4411 44.832V49.952H22.9851ZM20.2011 50.048C19.5718 50.048 19.0171 49.9413 18.5371 49.728C18.0678 49.5147 17.7051 49.2213 17.4491 48.848C17.1931 48.464 17.0651 48.032 17.0651 47.552C17.0651 47.0933 17.1718 46.6773 17.3851 46.304C17.6091 45.9307 17.9665 45.632 18.4571 45.408C18.9585 45.184 19.6305 45.072 20.4731 45.072H23.1611V46.176H20.5371C19.7691 46.176 19.2518 46.304 18.9851 46.56C18.7185 46.816 18.5851 47.1253 18.5851 47.488C18.5851 47.904 18.7505 48.24 19.0811 48.496C19.4118 48.7413 19.8705 48.864 20.4571 48.864C21.0331 48.864 21.5345 48.736 21.9611 48.48C22.3985 48.224 22.7131 47.8507 22.9051 47.36L23.2091 48.416C23.0065 48.9173 22.6491 49.3173 22.1371 49.616C21.6251 49.904 20.9798 50.048 20.2011 50.048Z" fill="white"/>
<path d="M31.8116 41.392C32.505 41.392 33.113 41.5253 33.6356 41.792C34.169 42.0587 34.585 42.464 34.8836 43.008C35.1823 43.552 35.3316 44.24 35.3316 45.072V49.952H33.7956V45.248C33.7956 44.4267 33.593 43.808 33.1876 43.392C32.793 42.976 32.233 42.768 31.5076 42.768C30.9636 42.768 30.489 42.8747 30.0836 43.088C29.6783 43.3013 29.3636 43.616 29.1396 44.032C28.9263 44.448 28.8196 44.9653 28.8196 45.584V49.952H27.2836V41.472H28.7556V43.76L28.5156 43.152C28.793 42.5973 29.2196 42.1653 29.7956 41.856C30.3716 41.5467 31.0436 41.392 31.8116 41.392Z" fill="white"/>
<path d="M53.0791 41.392C53.7618 41.392 54.3645 41.5253 54.8871 41.792C55.4098 42.0587 55.8151 42.464 56.1031 43.008C56.4018 43.552 56.5511 44.24 56.5511 45.072V49.952H55.0151V45.248C55.0151 44.4267 54.8231 43.808 54.4391 43.392C54.0551 42.976 53.5165 42.768 52.8231 42.768C52.3111 42.768 51.8631 42.8747 51.4791 43.088C51.0951 43.3013 50.7965 43.616 50.5831 44.032C50.3805 44.448 50.2791 44.9653 50.2791 45.584V49.952H48.7431V45.248C48.7431 44.4267 48.5511 43.808 48.1671 43.392C47.7938 42.976 47.2551 42.768 46.5511 42.768C46.0498 42.768 45.6071 42.8747 45.2231 43.088C44.8391 43.3013 44.5405 43.616 44.3271 44.032C44.1138 44.448 44.0071 44.9653 44.0071 45.584V49.952H42.4711V41.472H43.9431V43.728L43.7031 43.152C43.9698 42.5973 44.3805 42.1653 44.9351 41.856C45.4898 41.5467 46.1351 41.392 46.8711 41.392C47.6818 41.392 48.3805 41.5947 48.9671 42C49.5538 42.3947 49.9378 42.9973 50.1191 43.808L49.4951 43.552C49.7511 42.9013 50.1991 42.3787 50.8391 41.984C51.4791 41.5893 52.2258 41.392 53.0791 41.392Z" fill="white"/>
<path d="M63.0094 50.048C62.156 50.048 61.3987 49.8613 60.7374 49.488C60.076 49.1147 59.5534 48.6027 59.1694 47.952C58.7854 47.2907 58.5934 46.544 58.5934 45.712C58.5934 44.8693 58.7854 44.1227 59.1694 43.472C59.5534 42.8213 60.076 42.3147 60.7374 41.952C61.3987 41.5787 62.156 41.392 63.0094 41.392C63.852 41.392 64.604 41.5787 65.2654 41.952C65.9374 42.3147 66.46 42.8213 66.8334 43.472C67.2174 44.112 67.4094 44.8587 67.4094 45.712C67.4094 46.5547 67.2174 47.3013 66.8334 47.952C66.46 48.6027 65.9374 49.1147 65.2654 49.488C64.604 49.8613 63.852 50.048 63.0094 50.048ZM63.0094 48.704C63.5534 48.704 64.0387 48.5813 64.4654 48.336C64.9027 48.0907 65.244 47.744 65.4894 47.296C65.7347 46.8373 65.8574 46.3093 65.8574 45.712C65.8574 45.104 65.7347 44.5813 65.4894 44.144C65.244 43.696 64.9027 43.3493 64.4654 43.104C64.0387 42.8587 63.5534 42.736 63.0094 42.736C62.4654 42.736 61.98 42.8587 61.5534 43.104C61.1267 43.3493 60.7854 43.696 60.5294 44.144C60.2734 44.5813 60.1454 45.104 60.1454 45.712C60.1454 46.3093 60.2734 46.8373 60.5294 47.296C60.7854 47.744 61.1267 48.0907 61.5534 48.336C61.98 48.5813 62.4654 48.704 63.0094 48.704Z" fill="white"/>
<path d="M71.5232 49.952L67.8112 41.472H69.4112L72.7073 49.152H71.9392L75.2992 41.472H76.8033L73.0912 49.952H71.5232Z" fill="white"/>
<path d="M78.2367 49.952V41.472H79.7728V49.952H78.2367ZM79.0048 39.84C78.7061 39.84 78.4554 39.744 78.2527 39.552C78.0607 39.36 77.9648 39.1253 77.9648 38.848C77.9648 38.56 78.0607 38.32 78.2527 38.128C78.4554 37.936 78.7061 37.84 79.0048 37.84C79.3034 37.84 79.5488 37.936 79.7408 38.128C79.9434 38.3093 80.0447 38.5387 80.0447 38.816C80.0447 39.104 79.9488 39.3493 79.7568 39.552C79.5648 39.744 79.3141 39.84 79.0048 39.84Z" fill="white"/>
<path d="M86.4815 50.048C85.5748 50.048 84.7748 49.8613 84.0815 49.488C83.3988 49.1147 82.8655 48.6027 82.4815 47.952C82.1082 47.3013 81.9215 46.5547 81.9215 45.712C81.9215 44.8693 82.1028 44.1227 82.4655 43.472C82.8388 42.8213 83.3455 42.3147 83.9855 41.952C84.6362 41.5787 85.3668 41.392 86.1775 41.392C86.9988 41.392 87.7242 41.5733 88.3535 41.936C88.9828 42.2987 89.4735 42.8107 89.8255 43.472C90.1882 44.1227 90.3695 44.8853 90.3695 45.76C90.3695 45.824 90.3642 45.8987 90.3535 45.984C90.3535 46.0693 90.3482 46.1493 90.3375 46.224H83.1215V45.12H89.5375L88.9135 45.504C88.9242 44.96 88.8122 44.4747 88.5775 44.048C88.3428 43.6213 88.0175 43.2907 87.6015 43.056C87.1962 42.8107 86.7215 42.688 86.1775 42.688C85.6442 42.688 85.1695 42.8107 84.7535 43.056C84.3375 43.2907 84.0122 43.6267 83.7775 44.064C83.5428 44.4907 83.4255 44.9813 83.4255 45.536V45.792C83.4255 46.3573 83.5535 46.864 83.8095 47.312C84.0762 47.7493 84.4442 48.0907 84.9135 48.336C85.3828 48.5813 85.9215 48.704 86.5295 48.704C87.0308 48.704 87.4842 48.6187 87.8895 48.448C88.3055 48.2773 88.6682 48.0213 88.9775 47.68L89.8255 48.672C89.4415 49.12 88.9615 49.4613 88.3855 49.696C87.8202 49.9307 87.1855 50.048 86.4815 50.048Z" fill="white"/>
<path d="M94.9344 50.048C94.2304 50.048 93.5584 49.952 92.9184 49.76C92.289 49.568 91.793 49.3333 91.4304 49.056L92.0704 47.84C92.433 48.0853 92.881 48.2933 93.4144 48.464C93.9477 48.6347 94.4917 48.72 95.0464 48.72C95.761 48.72 96.273 48.6187 96.5824 48.416C96.9024 48.2133 97.0624 47.9307 97.0624 47.568C97.0624 47.3013 96.9664 47.0933 96.7744 46.944C96.5824 46.7947 96.3264 46.6827 96.0064 46.608C95.697 46.5333 95.3504 46.4693 94.9664 46.416C94.5824 46.352 94.1984 46.2773 93.8144 46.192C93.4304 46.096 93.0784 45.968 92.7584 45.808C92.4384 45.6373 92.1824 45.408 91.9904 45.12C91.7984 44.8213 91.7024 44.4267 91.7024 43.936C91.7024 43.424 91.8464 42.976 92.1344 42.592C92.4224 42.208 92.8277 41.9147 93.3504 41.712C93.8837 41.4987 94.513 41.392 95.2384 41.392C95.793 41.392 96.353 41.4613 96.9184 41.6C97.4944 41.728 97.9637 41.9147 98.3264 42.16L97.6704 43.376C97.2864 43.12 96.8864 42.944 96.4704 42.848C96.0544 42.752 95.6384 42.704 95.2224 42.704C94.5504 42.704 94.049 42.816 93.7184 43.04C93.3877 43.2533 93.2224 43.5307 93.2224 43.872C93.2224 44.16 93.3184 44.384 93.5104 44.544C93.713 44.6933 93.969 44.8107 94.2784 44.896C94.5984 44.9813 94.9504 45.056 95.3344 45.12C95.7184 45.1733 96.1024 45.248 96.4864 45.344C96.8704 45.4293 97.217 45.552 97.5264 45.712C97.8464 45.872 98.1024 46.096 98.2944 46.384C98.497 46.672 98.5984 47.056 98.5984 47.536C98.5984 48.048 98.449 48.4907 98.1504 48.864C97.8517 49.2373 97.4304 49.5307 96.8864 49.744C96.3424 49.9467 95.6917 50.048 94.9344 50.048Z" fill="white"/>
</svg>
