<svg width="10" height="10" viewBox="0 0 10 10" fill="none" xmlns="http://www.w3.org/2000/svg">
<mask id="path-1-inside-1_12_204" fill="white">
<path d="M7.38125 6.12398L9.94063 8.68337L8.6834 9.85603L6.12401 7.29664L7.38125 6.12398Z"/>
<path d="M8 4C8 6.20914 6.20914 8 4 8C1.79086 8 0 6.20914 0 4C0 1.79086 1.79086 0 4 0C6.20914 0 8 1.79086 8 4Z"/>
</mask>
<path d="M7.38125 6.12398L8.08835 5.41688L7.40543 4.73395L6.69917 5.39271L7.38125 6.12398ZM9.94063 8.68337L10.6227 9.41465L11.3799 8.70841L10.6477 7.97626L9.94063 8.68337ZM8.6834 9.85603L7.97629 10.5631L8.65921 11.2461L9.36548 10.5873L8.6834 9.85603ZM6.12401 7.29664L5.44193 6.56537L4.68476 7.2716L5.4169 8.00375L6.12401 7.29664ZM6.67414 6.83109L9.23353 9.39048L10.6477 7.97626L8.08835 5.41688L6.67414 6.83109ZM9.25855 7.9521L8.00132 9.12475L9.36548 10.5873L10.6227 9.41465L9.25855 7.9521ZM9.3905 9.14892L6.83112 6.58954L5.4169 8.00375L7.97629 10.5631L9.3905 9.14892ZM6.80609 8.02792L8.06333 6.85526L6.69917 5.39271L5.44193 6.56537L6.80609 8.02792ZM7 4C7 5.65685 5.65685 7 4 7V9C6.76142 9 9 6.76142 9 4H7ZM4 7C2.34315 7 1 5.65685 1 4H-1C-1 6.76142 1.23858 9 4 9V7ZM1 4C1 2.34315 2.34315 1 4 1V-1C1.23858 -1 -1 1.23858 -1 4H1ZM4 1C5.65685 1 7 2.34315 7 4H9C9 1.23858 6.76142 -1 4 -1V1Z" fill="white" mask="url(#path-1-inside-1_12_204)"/>
</svg>
